<svg fill="none" viewBox="0 0 512 512" xmlns="http://www.w3.org/2000/svg" xmlns:xlink="http://www.w3.org/1999/xlink"><linearGradient id="a" x1="0%" x2="100%" y1="0%" y2="100%"><stop offset="0" stop-color="#3b3795"/><stop offset="1" stop-color="#252262"/></linearGradient><linearGradient id="b" x1="100%" x2="0%" y1="0%" y2="100%"><stop offset="0" stop-color="#1c1950"/><stop offset="1" stop-color="#110f35"/></linearGradient><linearGradient id="c" x1="0%" x2="100%" y1="0%" y2="100%"><stop offset="0" stop-color="#a78bfa"/><stop offset="1" stop-color="#818cf8"/></linearGradient><linearGradient id="d" x1="0%" x2="100%" y1="0%" y2="100%"><stop offset="0" stop-color="#c4b5fd"/><stop offset="1" stop-color="#a78bfa"/></linearGradient><filter id="e" height="200%" width="200%" x="-50%" y="-50%"><feGaussianBlur in="SourceGraphic" stdDeviation="6"/></filter><filter id="f" height="180%" width="180%" x="-40%" y="-40%"><feGaussianBlur in="SourceGraphic" stdDeviation="3"/></filter><mask id="g"><path d="m0 0h512v512h-512z" fill="#fff"/><path d="m256 56-88 120-24 228 64 58h96l64-58-24-228z" fill="#000"/></mask><g mask="url(#g)" opacity=".45"><g fill="none" stroke="url(#c)" stroke-width="6" transform="matrix(.42 0 0 .42 103.54 131.26)"><ellipse cx="363" cy="297" rx="196" ry="75"/><ellipse cx="363" cy="297" rx="196" ry="75" transform="matrix(.5 .8660254 -.8660254 .5 438.709545 -165.867222)"/><ellipse cx="363" cy="297" rx="196" ry="75" transform="matrix(-.5 .8660254 -.8660254 -.5 801.709545 131.132778)"/></g></g><path d="m256 56-88 120-24 228 64 58h48z" fill="url(#b)"/><path d="m256 56 88 120 24 228-64 58h-48z" fill="url(#a)"/><g stroke="#a78bfa"><path d="m256 56-88 120" stroke-opacity=".15"/><path d="m256 56 88 120" stroke-opacity=".1"/><path d="m144 404 64 58" stroke-opacity=".08"/><path d="m368 404-64 58" stroke-opacity=".06"/><path d="m256 56v406" stroke-opacity=".2" stroke-width="1.5"/><path d="m256 56v406" filter="url(#f)" stroke-opacity=".06" stroke-width="6"/></g><g opacity=".9" transform="matrix(.42 0 0 .42 103.54 131.26)"><g fill="none" filter="url(#e)" stroke="#a78bfa" stroke-opacity=".06" stroke-width="14"><ellipse cx="363" cy="297" rx="196" ry="75"/><ellipse cx="363" cy="297" rx="196" ry="75" transform="matrix(.5 .8660254 -.8660254 .5 438.709545 -165.867222)"/><ellipse cx="363" cy="297" rx="196" ry="75" transform="matrix(-.5 .8660254 -.8660254 -.5 801.709545 131.132778)"/></g><g fill="none" stroke="url(#c)" stroke-width="5"><ellipse cx="363" cy="297" rx="196" ry="75"/><ellipse cx="363" cy="297" rx="196" ry="75" transform="matrix(.5 .8660254 -.8660254 .5 438.709545 -165.867222)"/><ellipse cx="363" cy="297" rx="196" ry="75" transform="matrix(-.5 .8660254 -.8660254 -.5 801.709545 131.132778)"/></g><circle cx="363" cy="297" fill="url(#d)" r="28"/><circle cx="358" cy="291" fill="#fff" opacity=".45" r="12"/></g><ellipse cx="256" cy="480" fill="#4c1d95" opacity=".15" rx="85" ry="5"/></svg>